<svg version="1" xmlns="http://www.w3.org/2000/svg" width="362.667" height="362.667" viewBox="0 0 272.000000 272.000000"><path d="M125.5 5.1c-5 2.9-10.6 6.1-12.5 7.2-1.9 1.1-6.2 3.5-9.5 5.4l-6.1 3.5v26.9c-.1 14.8.3 26.9.7 26.9.6 0 23-12.5 37-20.6.8-.4 8.5 3.6 22.8 12 6.2 3.6 11.5 6.6 11.7 6.6.2 0 3.6 1.9 7.6 4.3 4 2.4 8 4.6 8.8 5 .8.4 3.8 2.1 6.5 3.7 2.8 1.7 5.9 3.5 7 4 2.1 1 4.2 2.3 8.7 5.3l2.8 1.8v38.8c0 29.9-.3 39.1-1.2 39.9-1.1.8-32.5 18.9-48.8 28-2.5 1.4-8.7 5-13.9 7.9-5.1 3-10.1 5.5-11 5.6-.9 0-4.7-1.8-8.6-4-3.8-2.2-8.6-5-10.5-6-8.9-5-26.8-15.3-30-17.2-1.9-1.1-4.4-2.5-5.5-3.1-1.1-.5-4.2-2.3-7-4-2.7-1.6-5.7-3.3-6.5-3.6-.8-.4-2.7-1.6-4.2-2.6l-2.8-1.9-.2-66.4-.3-66.4-14 8.1c-7.7 4.4-16.9 9.6-20.5 11.6-3.6 1.9-8.3 4.7-10.5 6.1l-4 2.7-.3 65.1-.2 65.1 3.4 2.6c1.9 1.4 3.7 2.6 3.9 2.6.3 0 15.9 8.8 34.8 19.6s36.9 21 39.9 22.7c3 1.7 6.7 3.8 8.2 4.9 1.4 1 2.8 1.8 3.1 1.8.2 0 7.1 3.8 15.3 8.5 8.2 4.7 15.6 8.5 16.4 8.5.9 0 8.8-4.1 17.5-9.1 8.8-5 18-10.3 20.5-11.7 2.5-1.4 9-5.1 14.5-8.2 5.5-3.2 11.6-6.7 13.5-7.7 1.9-1.1 11.6-6.7 21.5-12.3 9.9-5.7 19.6-11.2 21.5-12.2 11.5-6.5 14.1-8.1 15-9.8.6-1.2 1-25.3 1-65.8v-64l-3.2-2.4c-1.8-1.3-5.8-3.6-8.8-5.2-3-1.6-6.2-3.5-7.1-4.2-.8-.8-1.8-1.4-2.1-1.4-.3 0-16-8.8-34.9-19.6s-36-20.5-37.9-21.6c-1.9-1.1-9.4-5.3-16.5-9.4-7.2-4.1-13.8-7.4-14.6-7.4-.8 0-5.5 2.3-10.4 5.1z"/><path d="M117.1 104.4c-10.2 5.8-18.8 11.1-19.1 11.8-.4.7-.7 10.1-.6 20.8l.1 19.4 12 6.8c6.6 3.7 12.7 7.2 13.5 7.7.8.6 4.2 2.4 7.5 4.1l6 3.2 19-10.9 19-10.9v-40.8l-18.9-10.8C145.2 98.9 136.4 94 136.1 94c-.3 0-8.9 4.7-19 10.4z"/></svg>