<svg xmlns="http://www.w3.org/2000/svg" width="41" height="44" xmlns:xlink="http://www.w3.org/1999/xlink">
  <g fill="#000" id="fL" transform="translate(.016 .04)">
    <use xlink:href="#a"/>
    <use xlink:href="#b"/>
  </g>
  <defs>
    <path id="a" d="M39.648 11.06L20.506.12c-.28-.16-.623-.16-.904 0L13.85 3.408v8.805l5.933-3.39c.168-.098.374-.098.542 0l11.487 6.562c.17.098.275.28.276.475v12.034c0 .196-.105.377-.276.475L20.325 34.93c-.084.05-.177.073-.27.073-.095 0-.188-.024-.272-.073L8.296 28.37c-.17-.1-.276-.28-.276-.476V6.738l-7.56 4.32c-.285.163-.46.466-.46.792v20.054c0 .326.175.63.46.79L19.6 43.635c.14.08.295.12.452.12.157 0 .312-.04.452-.12l19.142-10.94c.285-.16.46-.464.46-.79V11.85c0-.326-.175-.63-.46-.79z"/>
    <path id="b" d="M26.117 18.53l-5.923-3.385c-.087-.05-.193-.05-.28 0L13.99 18.53c-.087.05-.14.143-.14.244v6.206c0 .1.053.194.14.244l5.924 3.385c.043.024.09.037.14.037.05 0 .096-.013.14-.038l5.923-3.386c.088-.05.142-.143.142-.244v-6.206c0-.1-.055-.194-.143-.245z"/>
  </defs>
</svg>