<svg width="49" height="47" viewBox="0 0 49 47" version="1.1" xmlns="http://www.w3.org/2000/svg" xmlns:xlink="http://www.w3.org/1999/xlink">
<title>cp</title>
<desc>Created using Figma</desc>
<g id="Canvas" transform="translate(4147 -4337)">
<g id="cp">
<use xlink:href="#path0_fill" transform="translate(-4146.61 4337)" fill="#ffcc33"/>
</g>
</g>
<defs>
<path id="path0_fill" d="M 25.8087 0.615679C 24.47 -0.222929 22.7237 -0.203634 21.4054 0.666144L 1.67888 13.6757C 0.627034 14.3703 7.10109e-09 15.5058 7.10109e-09 16.7214L 7.10109e-09 30.7388C 7.10109e-09 31.9856 0.659954 33.1477 1.75883 33.835L 21.8083 46.3844C 23.1188 47.2052 24.8212 47.2052 26.1317 46.3844L 46.5792 33.593C 47.6766 32.9058 48.3381 31.7436 48.3381 30.4969L 48.3381 16.7244C 48.3381 15.4791 47.6781 14.3169 46.5808 13.6297L 25.8087 0.615679ZM 41.0817 15.7997L 33.5244 20.6042L 26.4373 15.724L 26.3919 6.12526L 41.0817 15.7997ZM 21.2643 6.13417L 21.2643 15.5281L 14.0017 20.3371L 6.75786 15.7373L 21.2643 6.13417ZM 4.77173 20.3668L 9.46038 23.3412L 4.77173 26.4478L 4.77173 20.3668ZM 21.3881 40.3939L 6.761 31.1054L 14.0675 26.2697L 21.3881 30.9199L 21.3881 40.3939ZM 18.6104 23.264L 23.3461 20.1278L 28.8624 23.5609L 23.9731 26.6704L 18.6104 23.264ZM 26.5549 40.3939L 26.5549 30.9169L 33.551 26.4775L 41.0833 31.1663L 26.5549 40.3939ZM 43.1713 26.6081L 38.2052 23.5179L 43.1713 20.3638L 43.1713 26.6081Z"/>
</defs>
</svg>
