<svg width="47" height="47" viewBox="0 0 47 47" version="1.1" xmlns="http://www.w3.org/2000/svg" xmlns:xlink="http://www.w3.org/1999/xlink">
<title>Vector</title>
<desc>Created using Figma</desc>
<g id="Canvas" transform="translate(4250 -4337)">
<g id="Vector">
<use xlink:href="#path0_fill" transform="translate(-4250 4337)" fill="#ffcc33"/>
<use xlink:href="#path1_fill" transform="translate(-4250 4337)" fill="#ffcc33"/>
<use xlink:href="#path2_fill" transform="translate(-4250 4337)" fill="#ffcc33"/>
</g>
</g>
<defs>
<path id="path0_fill" d="M 12.9706 0L 34.03 0C 41.1816 0 47 5.81863 47 12.9703L 47 34.0297C 47 41.1816 41.1816 47 34.03 47L 12.9706 47C 5.81836 47 9.9617e-09 41.1814 9.9617e-09 34.0297L 9.9617e-09 12.9703C -0.000277995 5.81863 5.81836 0 12.9706 0ZM 4.16979 34.0297C 4.16979 38.8823 8.11773 42.8299 12.9703 42.8299L 34.03 42.8299C 38.8823 42.8302 42.8299 38.8823 42.8299 34.0297L 42.8299 12.9703C 42.8299 8.11801 38.8823 4.17007 34.03 4.17007L 12.9706 4.17007C 8.11801 4.17007 4.17007 8.11801 4.17007 12.9703L 4.16979 34.0297Z"/>
<path id="path1_fill" d="M 23.5001 11.3901C 30.1781 11.3901 35.6108 16.8229 35.6108 23.5008C 35.6108 30.1785 30.1781 35.611 23.5001 35.611C 16.8222 35.611 11.3894 30.1785 11.3894 23.5008C 11.3894 16.8229 16.8222 11.3901 23.5001 11.3901ZM 23.5001 31.4407C 27.8784 31.4407 31.4408 27.8789 31.4408 23.5006C 31.4408 19.122 27.8787 15.5599 23.5001 15.5599C 19.1216 15.5599 15.5595 19.122 15.5595 23.5006C 15.5595 27.8789 19.1218 31.4407 23.5001 31.4407Z"/>
<path id="path2_fill" d="M 10.8814 7.854C 11.6848 7.854 12.4741 8.17927 13.0415 8.74918C 13.6117 9.31631 13.9395 10.1058 13.9395 10.9121C 13.9395 11.7158 13.6114 12.505 13.0415 13.0749C 12.4744 13.6421 11.6848 13.9701 10.8814 13.9701C 10.0752 13.9701 9.28844 13.6421 8.71853 13.0749C 8.14862 12.505 7.82335 11.7155 7.82335 10.9121C 7.82335 10.1058 8.14862 9.31631 8.71853 8.74918C 9.28566 8.17927 10.0752 7.854 10.8814 7.854Z"/>
</defs>
</svg>
