<svg width="49" height="47" viewBox="0 0 49 47" version="1.1" xmlns="http://www.w3.org/2000/svg" xmlns:xlink="http://www.w3.org/1999/xlink">
<title>li</title>
<desc>Created using Figma</desc>
<g id="Canvas" transform="translate(4042 -4337)">
<g id="li">
<use xlink:href="#path0_fill" transform="translate(-4041.34 4337)" fill="#ffcc33"/>
</g>
</g>
<defs>
<path id="path0_fill" d="M 24.169 0C 10.8217 0 0 10.5221 0 23.5C 0 36.4779 10.8217 47 24.169 47C 37.5164 47 48.3381 36.4779 48.3381 23.5C 48.3381 10.5192 37.5164 0 24.169 0ZM 18.1268 34.8828L 12.0845 34.8828L 12.0845 14.3203L 18.1268 14.3203L 18.1268 34.8828ZM 15.2929 13.0601C 13.728 13.0601 12.4622 11.8263 12.4622 10.3047C 12.4622 8.78308 13.7311 7.54931 15.2929 7.54931C 16.8579 7.5522 18.1268 8.78598 18.1268 10.3047C 18.1268 11.8263 16.8579 13.0601 15.2929 13.0601ZM 39.2746 34.8828L 33.2324 34.8828L 33.2324 22.1693C 33.2324 20.68 32.7943 19.6372 30.9121 19.6372C 27.7913 19.6372 27.1901 22.1693 27.1901 22.1693L 27.1901 34.8828L 21.1479 34.8828L 21.1479 14.3203L 27.1901 14.3203L 27.1901 16.2854C 28.0541 15.6422 30.2112 14.3232 33.2324 14.3232C 35.1901 14.3232 39.2746 15.4629 39.2746 22.3484L 39.2746 34.8828Z"/>
</defs>
</svg>
